<svg width="40px" height="40px" id="레이어_1" style="enable-background:new 0 0 40 40;" version="1.1" viewBox="0 0 40 40" xml:space="preserve" xmlns="http://www.w3.org/2000/svg" xmlns:xlink="http://www.w3.org/1999/xlink"><path d="M37.79,34L35,30.69c1.71-2.46,1.1-5.84-1.36-7.54c-2.46-1.71-5.84-1.1-7.54,1.36c-1.71,2.46-1.1,5.84,1.36,7.54  c0.79,0.55,1.71,0.88,2.66,0.95h0.47c1.15,0,2.27-0.38,3.19-1.07l2.71,3.16c0.16,0.19,0.4,0.3,0.65,0.3c0.2,0,0.4-0.07,0.56-0.2  C38.05,34.88,38.08,34.36,37.79,34z M30.26,31.25c-0.57-0.04-1.13-0.21-1.64-0.54c-1.44-0.94-2.09-2.81-1.49-4.43  c0.22-0.58,0.57-1.11,1.05-1.52c1.18-1,3.02-1.14,4.34-0.33c1.32,0.81,2.02,2.52,1.65,4.02C33.73,30.24,31.98,31.36,30.26,31.25z"/><path d="M26,32H6.18c-1.36-0.01-2.46-1.11-2.47-2.47V14.06h29.12v7.36c0,0.47,0.38,0.85,0.85,0.85c0.47,0,0.85-0.38,0.86-0.85V8.82  c0-2.31-1.87-4.18-4.18-4.18l0,0H6.18C3.87,4.64,2,6.51,2,8.82v20.75c0,2.31,1.87,4.18,4.18,4.18l0,0H26c0.48,0,0.88-0.39,0.88-0.88  S26.48,32,26,32z M6.18,6.35h24.18c1.36,0.01,2.46,1.11,2.47,2.47v3.53H3.71V8.82C3.72,7.46,4.82,6.36,6.18,6.35z"/><path d="M6.75,10.4h3.32c0.47,0.05,0.9-0.29,0.95-0.76c0.05-0.47-0.29-0.9-0.76-0.95c-0.06-0.01-0.12-0.01-0.19,0H6.75  C6.28,8.74,5.94,9.17,5.99,9.64C6.03,10.04,6.35,10.36,6.75,10.4z"/><path d="M10.84,22.44c-0.47,0-0.85,0.38-0.85,0.85l0,0v3.42c0,0.47,0.38,0.85,0.85,0.85h0h2.67c0.47,0,0.85-0.38,0.85-0.85l0,0  v-3.42c0-0.47-0.38-0.85-0.85-0.85h0H10.84z M12.65,25.85h-1v-1.7h1V25.85z"/><path d="M16,19.58c-0.47,0-0.86,0.39-0.86,0.86l0,0v6.27c0.01,0.47,0.39,0.85,0.86,0.85h2.66c0.47,0.01,0.85-0.37,0.86-0.84  c0,0,0-0.01,0-0.01v-6.27c0.01-0.47-0.37-0.85-0.84-0.86c-0.01,0-0.01,0-0.02,0H16z M17.81,25.85h-0.95v-4.56h0.95V25.85z"/><path d="M21.23,16.63c-0.47-0.01-0.85,0.37-0.86,0.84c0,0,0,0.01,0,0.01v9.23c0,0.47,0.38,0.85,0.85,0.85c0,0,0.01,0,0.01,0h2.66  c0.47,0,0.85-0.38,0.86-0.85v-9.23c-0.01-0.47-0.39-0.85-0.86-0.85H21.23z M23,25.85h-1v-7.51h1V25.85z"/></svg>
