<?xml version="1.0" standalone="no"?>
<!DOCTYPE svg PUBLIC "-//W3C//DTD SVG 20010904//EN"
 "http://www.w3.org/TR/2001/REC-SVG-20010904/DTD/svg10.dtd">
<svg version="1.0" xmlns="http://www.w3.org/2000/svg"
 width="24px" height="24px" viewBox="0 0 1230.000000 1280.000000"
 preserveAspectRatio="xMidYMid meet">
<metadata>
Created by potrace 1.15, written by Peter Selinger 2001-2017
</metadata>
<g transform="translate(0.000000,1280.000000) scale(0.100000,-0.100000)"
fill="white" stroke="none">
<path d="M10122 12729 l-2123 -66 -82 -80 c-75 -72 -3682 -3574 -4649 -4513
l-406 -395 70 -10 70 -10 -54 -52 -55 -51 101 -6 c56 -3 317 -13 581 -21 264
-8 615 -20 780 -25 165 -6 488 -17 719 -25 230 -8 420 -15 422 -17 2 -2 -866
-827 -1928 -1833 -1062 -1007 -2022 -1917 -2134 -2022 l-203 -193 74 0 c41 0
75 -2 75 -4 0 -2 -26 -29 -57 -59 l-57 -55 200 -6 c109 -3 494 -11 854 -17
360 -6 656 -12 657 -13 0 0 -665 -702 -1479 -1559 -814 -857 -1478 -1560
-1476 -1561 2 -2 59 27 128 65 69 37 129 68 135 69 5 0 -31 -42 -80 -92 -50
-51 -106 -110 -125 -132 l-35 -38 75 40 c41 22 1135 604 2430 1292 1295 689
2936 1561 3646 1938 l1292 687 -120 5 -119 5 101 54 c56 29 99 55 97 57 -4 4
-1463 -9 -2234 -20 -178 -2 -323 -1 -322 2 0 4 460 356 1022 783 562 427 1517
1154 2122 1614 605 461 1370 1043 1699 1294 l600 456 -89 5 -88 5 72 55 72 55
-1213 6 c-667 3 -1311 7 -1430 8 l-217 1 52 48 c29 27 939 838 2022 1803 2778
2473 2775 2470 2775 2475 0 2 -37 1 -82 -2 l-83 -5 64 60 c36 33 63 62 60 64
-2 2 -959 -27 -2127 -64z"/>
</g>
</svg>
