<svg width="194" height="19" viewBox="0 0 194 19" fill="none" xmlns="http://www.w3.org/2000/svg">
<path d="M10.9858 5.56534C10.9176 4.87784 10.625 4.34375 10.108 3.96307C9.59091 3.58239 8.8892 3.39204 8.00284 3.39204C7.40057 3.39204 6.89205 3.47727 6.47727 3.64773C6.0625 3.8125 5.74432 4.04261 5.52273 4.33807C5.30682 4.63352 5.19886 4.96875 5.19886 5.34375C5.1875 5.65625 5.25284 5.92898 5.39489 6.16193C5.54261 6.39489 5.74432 6.59659 6 6.76705C6.25568 6.93182 6.55114 7.0767 6.88636 7.2017C7.22159 7.32102 7.57955 7.4233 7.96023 7.50852L9.52841 7.88352C10.2898 8.05398 10.9886 8.28125 11.625 8.56534C12.2614 8.84943 12.8125 9.19886 13.2784 9.61364C13.7443 10.0284 14.1051 10.517 14.3608 11.0795C14.6222 11.642 14.7557 12.2869 14.7614 13.0142C14.7557 14.0824 14.483 15.0085 13.9432 15.7926C13.4091 16.571 12.6364 17.1761 11.625 17.608C10.6193 18.0341 9.40625 18.2472 7.9858 18.2472C6.5767 18.2472 5.34943 18.0312 4.30398 17.5994C3.2642 17.1676 2.4517 16.5284 1.86648 15.6818C1.28693 14.8295 0.982955 13.7756 0.954545 12.5199H4.52557C4.56534 13.1051 4.73295 13.5937 5.02841 13.9858C5.32955 14.3722 5.73011 14.6648 6.23011 14.8636C6.7358 15.0568 7.30682 15.1534 7.94318 15.1534C8.56818 15.1534 9.1108 15.0625 9.57102 14.8807C10.0369 14.6989 10.3977 14.446 10.6534 14.1222C10.9091 13.7983 11.0369 13.4261 11.0369 13.0057C11.0369 12.6136 10.9205 12.2841 10.6875 12.017C10.4602 11.75 10.125 11.5227 9.68182 11.3352C9.24432 11.1477 8.70739 10.9773 8.07102 10.8239L6.17045 10.3466C4.69886 9.98864 3.53693 9.42898 2.68466 8.66761C1.83239 7.90625 1.40909 6.88068 1.41477 5.59091C1.40909 4.53409 1.69034 3.6108 2.25852 2.82102C2.83239 2.03125 3.61932 1.41477 4.61932 0.971591C5.61932 0.528409 6.75568 0.306818 8.02841 0.306818C9.32386 0.306818 10.4545 0.528409 11.4205 0.971591C12.392 1.41477 13.1477 2.03125 13.6875 2.82102C14.2273 3.6108 14.5057 4.52557 14.5227 5.56534H10.9858ZM17.2436 18V0.545454H24.13C25.4538 0.545454 26.5817 0.798295 27.5135 1.30398C28.4453 1.80398 29.1555 2.5 29.6442 3.39204C30.1385 4.27841 30.3857 5.30114 30.3857 6.46023C30.3857 7.61932 30.1357 8.64205 29.6357 9.52841C29.1357 10.4148 28.4112 11.1051 27.4624 11.5994C26.5192 12.0937 25.3771 12.3409 24.0362 12.3409H19.647V9.38352H23.4396C24.1499 9.38352 24.7351 9.26136 25.1953 9.01705C25.6612 8.76705 26.0078 8.4233 26.2351 7.9858C26.468 7.54261 26.5845 7.03409 26.5845 6.46023C26.5845 5.88068 26.468 5.375 26.2351 4.94318C26.0078 4.50568 25.6612 4.16761 25.1953 3.92898C24.7294 3.68466 24.1385 3.5625 23.4226 3.5625H20.9339V18H17.2436ZM32.7827 18V0.545454H39.669C40.9872 0.545454 42.1122 0.78125 43.044 1.25284C43.9815 1.71875 44.6946 2.38068 45.1832 3.23864C45.6776 4.09091 45.9247 5.09375 45.9247 6.24716C45.9247 7.40625 45.6747 8.40341 45.1747 9.23864C44.6747 10.0682 43.9503 10.7045 43.0014 11.1477C42.0582 11.5909 40.9162 11.8125 39.5753 11.8125H34.9645V8.84659H38.9787C39.6832 8.84659 40.2685 8.75 40.7344 8.55682C41.2003 8.36364 41.5469 8.07386 41.7741 7.6875C42.0071 7.30114 42.1236 6.82102 42.1236 6.24716C42.1236 5.66761 42.0071 5.17898 41.7741 4.78125C41.5469 4.38352 41.1974 4.08239 40.7259 3.87784C40.2599 3.66761 39.6719 3.5625 38.9616 3.5625H36.473V18H32.7827ZM42.2088 10.0568L46.5469 18H42.473L38.2287 10.0568H42.2088ZM52.223 0.545454V18H48.5327V0.545454H52.223ZM69.8587 0.545454V18H66.6712L59.0774 7.0142H58.9496V18H55.2592V0.545454H58.4979L66.032 11.5227H66.1854V0.545454H69.8587ZM84.4815 6.1875C84.3622 5.77273 84.1946 5.40625 83.9787 5.08807C83.7628 4.7642 83.4986 4.49148 83.1861 4.26989C82.8793 4.04261 82.527 3.86932 82.1293 3.75C81.7372 3.63068 81.3026 3.57102 80.8253 3.57102C79.9332 3.57102 79.1491 3.79261 78.473 4.23579C77.8026 4.67898 77.2798 5.32386 76.9048 6.17045C76.5298 7.01136 76.3423 8.03977 76.3423 9.25568C76.3423 10.4716 76.527 11.5057 76.8963 12.358C77.2656 13.2102 77.7884 13.8608 78.4645 14.3097C79.1406 14.7528 79.9389 14.9744 80.8594 14.9744C81.6946 14.9744 82.4077 14.8267 82.9986 14.5312C83.5952 14.2301 84.0497 13.8068 84.3622 13.2614C84.6804 12.7159 84.8395 12.071 84.8395 11.3267L85.5895 11.4375H81.0895V8.65909H88.3935V10.858C88.3935 12.392 88.0696 13.7102 87.4219 14.8125C86.7741 15.9091 85.8821 16.7557 84.7457 17.3523C83.6094 17.9432 82.3082 18.2386 80.8423 18.2386C79.206 18.2386 77.7685 17.8778 76.5298 17.1562C75.2912 16.429 74.3253 15.3977 73.6321 14.0625C72.9446 12.7216 72.6009 11.1307 72.6009 9.28977C72.6009 7.875 72.8054 6.61364 73.2145 5.50568C73.6293 4.39205 74.2088 3.44886 74.9531 2.67614C75.6974 1.90341 76.5639 1.31534 77.5526 0.911931C78.5412 0.508522 79.6122 0.306818 80.7656 0.306818C81.7543 0.306818 82.6747 0.451704 83.527 0.741477C84.3793 1.02557 85.1349 1.42898 85.794 1.9517C86.4588 2.47443 87.0014 3.09659 87.4219 3.81818C87.8423 4.53409 88.1122 5.32386 88.2315 6.1875H84.4815Z" fill="white"/>
<path d="M100.649 18L95.6548 0.545454H99.6861L102.575 12.6733H102.72L105.908 0.545454H109.359L112.538 12.6989H112.692L115.581 0.545454H119.612L114.618 18H111.021L107.697 6.58807H107.561L104.246 18H100.649ZM122.838 18H118.884L124.909 0.545454H129.665L135.682 18H131.727L127.355 4.53409H127.219L122.838 18ZM122.591 11.1392H131.932V14.0199H122.591V11.1392ZM137.783 18V0.545454H141.473V14.9574H148.956V18H137.783ZM151.4 18V0.545454H155.09V14.9574H162.573V18H151.4ZM165.017 18V0.545454H176.778V3.58807H168.707V7.74716H176.173V10.7898H168.707V14.9574H176.812V18H165.017ZM179.048 3.58807V0.545454H193.383V3.58807H188.039V18H184.391V3.58807H179.048Z" fill="#299D91"/>
</svg>
